<svg width="1775" height="1807" viewBox="0 0 1775 1807" fill="none" xmlns="http://www.w3.org/2000/svg">
<path d="M737.595 1787.58L716.292 1802.03C712.031 1798.4 707.692 1794.29 703.273 1789.71C698.697 1785.29 694.437 1780.79 690.491 1776.21C686.389 1771.79 683.233 1767.69 681.023 1763.9L703.984 1748.03C705.877 1751.82 708.718 1756 712.505 1760.58C716.134 1765.32 720.158 1769.98 724.577 1774.55C728.995 1779.29 733.335 1783.63 737.595 1787.58ZM892.635 1741.16H679.13V1714.4H892.635V1741.16ZM897.132 1674.38C887.664 1675.8 876.618 1677.53 863.994 1679.59C851.37 1681.64 838.036 1683.93 823.991 1686.45C809.789 1688.98 795.824 1691.43 782.095 1693.8L780.202 1668.22C792.826 1665.53 805.686 1662.85 818.784 1660.17C831.724 1657.48 844.348 1654.88 856.656 1652.35C868.807 1649.98 880.011 1647.77 890.268 1645.72L897.132 1674.38ZM847.898 1779.53H819.257V1619.43C819.257 1611.7 820.204 1605.7 822.098 1601.43C823.834 1597.17 827.069 1593.93 831.803 1591.72C836.537 1589.51 842.454 1588.09 849.555 1587.46C856.656 1586.67 865.099 1586.28 874.882 1586.28C875.198 1588.96 875.908 1592.04 877.013 1595.51C878.117 1598.99 879.38 1602.46 880.8 1605.93C882.062 1609.41 883.404 1612.41 884.824 1614.93C878.196 1614.62 871.805 1614.46 865.651 1614.46C859.497 1614.46 855.394 1614.54 853.343 1614.7C851.291 1614.7 849.871 1615.01 849.082 1615.64C848.293 1616.43 847.898 1617.77 847.898 1619.67V1779.53ZM799.374 1807L779.965 1782.84C790.222 1779.69 801.347 1776.84 813.34 1774.32C825.333 1771.95 837.562 1769.82 850.029 1767.92C862.337 1766.03 874.251 1764.45 885.771 1763.19C886.244 1766.5 887.349 1770.53 889.085 1775.27C890.663 1780 892.241 1783.95 893.819 1787.11C882.773 1788.53 871.49 1790.26 859.97 1792.32C848.451 1794.37 837.484 1796.66 827.069 1799.18C816.654 1801.71 807.422 1804.32 799.374 1807ZM775.941 1806.76H746.353C746.669 1787.66 746.195 1768.79 744.933 1750.16C743.513 1731.53 741.461 1714.01 738.779 1697.59C736.096 1681.32 732.94 1666.88 729.311 1654.25C725.681 1641.77 721.815 1631.98 717.712 1624.88C713.609 1617.77 709.349 1614.22 704.93 1614.22C702.405 1614.22 700.512 1617.3 699.249 1623.46C697.829 1629.62 696.804 1639.72 696.172 1653.77C693.174 1650.61 689.466 1647.46 685.047 1644.3C680.629 1641.3 676.526 1639.01 672.739 1637.43C674.317 1623.54 676.447 1612.88 679.13 1605.46C681.812 1597.88 685.521 1592.67 690.255 1589.83C694.831 1586.83 700.67 1585.33 707.771 1585.33C715.976 1585.33 723.393 1588.33 730.021 1594.33C736.491 1600.17 742.25 1608.38 747.3 1618.96C752.192 1629.54 756.452 1641.85 760.082 1655.9C763.553 1670.11 766.473 1685.43 768.84 1701.85C771.207 1718.43 772.943 1735.64 774.047 1753.48C775.152 1771.32 775.783 1789.08 775.941 1806.76ZM711.558 1706.59L686.704 1695.69C694.752 1681.01 704.299 1667.35 715.345 1654.72C726.391 1642.09 738.463 1630.64 751.561 1620.38C764.658 1610.28 778.387 1601.43 792.747 1593.86C794.798 1597.33 797.639 1601.2 801.268 1605.46C804.74 1609.72 808.29 1613.43 811.92 1616.59C798.349 1622.91 785.251 1630.56 772.627 1639.56C759.845 1648.56 748.247 1658.75 737.832 1670.11C727.417 1681.48 718.659 1693.64 711.558 1706.59Z" fill="url(#paint0_linear_189151_956)"/>
<path d="M530.654 1717.69L396.676 1669.84L466.543 1474.01L491.956 1483.08L430.365 1655.72L514.408 1685.74L576.715 1511.09L601.237 1519.85L530.654 1717.69ZM518.32 1656.45L444.978 1630.26L451.901 1610.86L525.243 1637.05L518.32 1656.45ZM575.56 1551.67L467.441 1513.05L475.717 1489.86L583.836 1528.47L575.56 1551.67ZM484.79 1670.13L464.058 1662.72L489.681 1590.9L510.413 1598.31L484.79 1670.13ZM513.803 1590.21L522.159 1566.8L499.643 1558.75L491.288 1582.17L513.803 1590.21ZM526.593 1615.65L464.397 1593.44L485.882 1533.22L548.079 1555.43L526.593 1615.65ZM554.175 1738.41L532.581 1722.15C541.305 1710.85 551.048 1699.74 561.809 1688.83C572.369 1678.02 583.285 1668.09 594.557 1659.04C605.775 1650.14 616.914 1642.63 627.974 1636.52C627.773 1638.97 627.752 1642.31 627.912 1646.56C628.072 1650.81 628.38 1655.11 628.837 1659.46C629.295 1663.82 629.768 1667.42 630.256 1670.28C621.574 1674.89 612.791 1680.72 603.908 1687.78C594.876 1694.78 586.151 1702.56 577.735 1711.12C569.266 1719.83 561.413 1728.93 554.175 1738.41ZM594.338 1683.6L560.155 1699.81L560.012 1699.51L621.683 1526.65L647.096 1535.73L594.338 1683.6Z" fill="url(#paint1_linear_189151_956)"/>
<path d="M262.291 1538.45L237.01 1517.76C241.451 1512.83 247.275 1506.58 254.48 1499.01C261.686 1491.45 270.191 1483.41 279.994 1474.92C289.576 1466.44 300.413 1458.18 312.503 1450.12C324.594 1442.07 337.907 1435.01 352.44 1428.96C366.752 1422.93 382.301 1418.62 399.089 1416.04C415.654 1413.49 433.264 1413.52 451.916 1416.14C451.572 1420.55 451.811 1425.75 452.633 1431.72C453.332 1437.6 454.465 1443.32 456.03 1448.89C438.221 1445.73 421.567 1445.15 406.067 1447.15C390.568 1449.15 376.245 1452.83 363.099 1458.19C349.854 1463.66 337.829 1470.14 327.026 1477.62C316.123 1485.21 306.464 1492.91 298.048 1500.71C289.632 1508.51 282.454 1515.79 276.514 1522.56C270.574 1529.32 265.833 1534.62 262.291 1538.45ZM241.973 1513.56C243.749 1511.14 246.503 1507.27 250.233 1501.96C253.964 1496.65 258.128 1490.06 262.724 1482.2C267.321 1474.33 271.867 1465.41 276.364 1455.42C280.638 1445.46 284.38 1434.65 287.588 1422.99C290.797 1411.34 292.94 1399.12 294.017 1386.33C295.094 1373.55 294.511 1360.42 292.268 1346.96C289.903 1333.4 285.445 1319.65 278.894 1305.72C284.534 1306.05 290.28 1305.76 296.131 1304.84C301.86 1303.81 306.89 1302.52 311.22 1300.97C317.86 1315.79 322.245 1330.5 324.377 1345.09C326.287 1359.71 326.537 1373.99 325.127 1387.93C323.495 1401.9 320.786 1415.18 317 1427.79C313.214 1440.4 308.845 1452.23 303.893 1463.27C298.719 1474.33 293.546 1484.28 288.372 1493.1C283.198 1501.92 278.507 1509.4 274.299 1515.54C269.969 1521.58 266.877 1525.99 265.023 1528.76L241.973 1513.56Z" fill="url(#paint2_linear_189151_956)"/>
<path d="M77.4023 1241.91L64.2105 1220C72.8905 1216.06 81.9232 1212.55 91.3085 1209.47C100.477 1206.34 109.945 1204.32 119.714 1203.41C129.346 1202.58 139.307 1203.21 149.594 1205.31C159.665 1207.35 169.984 1211.63 180.55 1218.17C178.444 1221.1 176.516 1224.93 174.766 1229.67C173.015 1234.41 171.927 1238.57 171.5 1242.15C162.694 1236.4 154.108 1232.54 145.742 1230.58C137.377 1228.62 129.257 1227.98 121.383 1228.67C113.509 1229.36 105.92 1230.99 98.618 1233.55C91.2342 1235.97 84.1623 1238.76 77.4023 1241.91ZM133.204 1256.11L109.536 1254.89C107.356 1246.99 105.636 1238.62 104.376 1229.8C103.034 1220.84 102.071 1212.2 101.488 1203.89C100.823 1195.44 100.566 1188.13 100.718 1181.96L126.536 1182.16C125.898 1188.44 125.843 1195.85 126.373 1204.37C126.686 1212.85 127.445 1221.61 128.652 1230.65C129.643 1239.64 131.16 1248.12 133.204 1256.11ZM40.9152 1200.59L27.2348 1177.87C27.2348 1177.87 27.8431 1177.5 29.0596 1176.77C30.1409 1176.12 31.4658 1175.41 33.034 1174.65C34.3857 1173.83 35.5078 1173.25 36.4002 1172.9C52.135 1164.15 65.1804 1157.21 75.5362 1152.07C85.7569 1147.02 93.937 1143.47 100.077 1141.43C106 1139.33 110.572 1138.51 113.793 1138.97C117.583 1139.45 120.67 1140.44 123.054 1141.95C125.357 1143.33 127.566 1145.32 129.681 1147.91C131.688 1150.02 133.939 1153 136.436 1156.84C138.797 1160.76 141.254 1164.99 143.806 1169.54C140.509 1171.71 137.199 1174.62 133.876 1178.29C130.338 1181.89 127.57 1185.41 125.574 1188.82C123.862 1185.06 122.219 1181.72 120.644 1178.8C118.934 1175.96 117.59 1173.73 116.613 1172.1C115.201 1169.45 113.168 1167.91 110.515 1167.48C108.594 1167.35 105.293 1168.14 100.615 1169.86C95.8007 1171.65 88.9055 1174.89 79.9291 1179.56C70.8712 1184.1 59.0831 1190.37 44.5647 1198.39L40.9152 1200.59ZM186.068 1193.83L172.632 1171.51L216.832 1144.87C219.67 1143.16 221.332 1141.79 221.817 1140.76C222.167 1139.81 221.772 1138.39 220.632 1136.5C220.388 1136.09 219.981 1135.42 219.411 1134.47C218.841 1133.52 218.23 1132.51 217.579 1131.43C216.927 1130.35 216.317 1129.33 215.747 1128.38C215.095 1127.3 214.647 1126.56 214.403 1126.15C213.589 1124.8 212.505 1124.07 211.151 1123.97C209.798 1123.86 207.512 1124.5 204.294 1125.89C200.941 1127.36 196.115 1129.9 189.816 1133.51C190.083 1131.5 190.133 1128.99 189.965 1125.95C189.58 1122.87 189.128 1119.82 188.609 1116.82C187.873 1113.76 187.232 1111.01 186.686 1108.58C195.879 1103.96 203.438 1101.06 209.363 1099.88C215.341 1098.49 220.145 1098.82 223.775 1100.87C227.459 1102.71 230.767 1106.06 233.698 1110.93C234.268 1111.88 235.042 1113.16 236.019 1114.78C236.915 1116.27 237.851 1117.83 238.829 1119.45C239.806 1121.07 240.742 1122.63 241.638 1124.11C242.534 1125.6 243.267 1126.82 243.837 1127.77C247.582 1133.99 249.595 1139.32 249.873 1143.76C250.205 1147.98 248.778 1151.88 245.591 1155.46C242.404 1159.04 237.431 1162.87 230.673 1166.94L186.068 1193.83ZM206.434 1209.75L199.899 1187.43C206.172 1184.38 212.716 1181.64 219.532 1179.19C226.347 1176.74 233.069 1174.9 239.697 1173.67C246.19 1172.52 252.482 1172.41 258.573 1173.35L258.576 1197.68C253.351 1196.96 247.871 1197.04 242.136 1197.91C236.265 1198.87 230.3 1200.44 224.242 1202.61C218.102 1204.66 212.166 1207.04 206.434 1209.75ZM169.269 1197.6L146.648 1192.15C146.205 1186.52 146.086 1180.51 146.291 1174.12C146.361 1167.81 146.796 1161.65 147.597 1155.64C148.182 1149.57 149.12 1144.4 150.411 1140.12L175.387 1145.8C173.797 1149.89 172.561 1154.88 171.679 1160.75C170.715 1166.5 170.063 1172.6 169.722 1179.07C169.247 1185.63 169.096 1191.8 169.269 1197.6ZM167.538 1137.81L147.782 1122.9C150.72 1116.15 154.267 1109.5 158.423 1102.94C162.578 1096.38 166.979 1090.23 171.623 1084.48C176.132 1078.81 180.468 1074.08 184.628 1070.28L206.497 1086.4C201.957 1089.88 197.391 1094.38 192.8 1099.91C188.074 1105.53 183.458 1111.63 178.95 1118.22C174.442 1124.8 170.638 1131.34 167.538 1137.81ZM88.3079 1279.3L34.6858 1190.24L54.9609 1178.02L108.583 1267.08L88.3079 1279.3ZM187.107 1320.39L151.318 1260.95L169.768 1249.83L205.557 1309.26L187.107 1320.39ZM130.861 1353.18L95.8054 1294.96L114.053 1283.96L149.109 1342.18L130.861 1353.18ZM214.884 1303.64L179.095 1244.21L197.342 1233.21L233.131 1292.64L214.884 1303.64ZM164.015 1346.75L119.432 1272.7L138.693 1261.09L183.277 1335.14L164.015 1346.75ZM236.512 1276.23L206.83 1226.93L268.669 1189.66L298.351 1238.95L279.089 1250.56L261.623 1221.56L238.306 1235.61L255.773 1264.62L236.512 1276.23ZM243.108 1287.18L231.015 1267.1L300.762 1225.06L312.854 1245.14L243.108 1287.18Z" fill="url(#paint3_linear_189151_956)"/>
<path d="M136.095 1016.45L104.314 859.058L128.211 854.227L159.992 1011.62L136.095 1016.45ZM57.7848 1065.14L26.7065 911.229L51.764 906.164L82.8424 1060.07L57.7848 1065.14ZM86.6004 987.794L65.3658 882.635L89.2633 877.805L110.498 982.963L86.6004 987.794ZM106.47 869.736L100.892 842.112C100.892 842.112 101.603 842.048 103.027 841.922C104.264 841.671 105.749 841.452 107.482 841.263C109.183 840.919 110.591 840.715 111.705 840.651C127.732 838.699 141.006 837.466 151.527 836.95C161.862 836.31 170.156 836.325 176.409 836.994C182.507 837.694 187.121 839.017 190.25 840.961C193.72 842.998 196.387 845.439 198.249 848.284C200.08 850.974 201.618 854.207 202.864 857.982C203.953 860.984 205.044 865.193 206.138 870.609C207.355 875.84 208.403 881.427 209.281 887.37C205.6 888.275 201.518 889.986 197.036 892.503C192.522 894.865 188.705 897.489 185.585 900.375C185.018 895.174 184.358 890.314 183.607 885.794C182.855 881.275 182.168 877.871 181.544 875.58C181.169 873.723 180.702 872.207 180.143 871.031C179.552 869.701 178.59 868.527 177.258 867.507C175.398 866.272 172.024 865.505 167.133 865.205C162.057 864.781 154.908 864.857 145.687 865.433C136.466 866.008 124.708 867.177 110.414 868.939L106.47 869.736ZM148.472 912.709L138.132 894.987C142.271 890.768 146.92 886.687 152.081 882.744C157.241 878.802 161.785 875.789 165.711 873.707L177.492 892.588C173.504 894.36 168.759 897.172 163.258 901.022C157.757 904.872 152.828 908.768 148.472 912.709ZM24.4611 1044.81L9.65394 1021.71C13.2958 1016.63 17.5407 1011.34 22.3887 1005.85C27.2368 1000.36 31.5918 996.014 35.454 992.817L51.7494 1017.31C47.9168 1019.86 43.4836 1023.81 38.4497 1029.18C33.2298 1034.42 28.567 1039.63 24.4611 1044.81ZM168.893 981.548L161.794 959.547C168.781 955.879 176.651 952.597 185.403 949.7C194.001 946.835 201.548 944.746 208.044 943.432L215.889 966.733C211.65 967.267 206.793 968.33 201.319 969.92C195.813 971.355 190.292 973.115 184.757 975.2C179.035 977.162 173.747 979.278 168.893 981.548ZM159.959 946.871L150.774 926.499C156.862 922.369 163.462 918.377 170.572 914.523C177.683 910.67 184.021 907.778 189.588 905.847L199.703 927.239C194.105 929.015 187.581 931.784 180.13 935.545C172.679 939.306 165.955 943.081 159.959 946.871ZM167.518 1014.2L170.44 989.209C177.558 989.38 184.754 989.939 192.029 990.885C199.118 991.707 206.083 993.118 212.927 995.117C219.77 997.116 226.12 999.86 231.976 1003.35L221.022 1028.03C216.188 1024.82 210.845 1022.28 204.992 1020.4C199.108 1018.37 193.008 1016.86 186.693 1015.88C180.192 1014.78 173.8 1014.22 167.518 1014.2ZM0 975.098L1.19476 945.138C18.8076 947.054 36.3142 950.039 53.7146 954.092C70.9291 958.022 87.7288 963.485 104.114 970.482C120.313 977.355 135.741 985.994 150.4 996.401C164.904 1006.84 178.143 1019.38 190.117 1034.04C188.171 1035.56 185.915 1037.54 183.351 1040C180.602 1042.32 177.945 1044.71 175.381 1047.16C172.817 1049.61 170.702 1051.89 169.035 1054C158.61 1040.65 146.89 1029.24 133.873 1019.8C120.826 1010.19 106.915 1002.29 92.1407 996.097C77.3354 989.747 62.1926 984.915 46.7124 981.602C31.0463 978.164 15.4755 975.996 0 975.098ZM27.8315 916.8L22.6284 891.033C31.634 890.984 41.0732 891.09 50.9459 891.349C60.7874 891.454 69.2985 891.747 76.4793 892.228L77.4569 917.4C70.7402 916.825 62.8634 916.484 53.8265 916.378C44.635 916.303 35.97 916.444 27.8315 916.8ZM67.4752 893.082L62.2721 867.314C71.0918 867.142 80.345 867.124 90.0318 867.26C99.7187 867.396 108.091 867.798 115.148 868.465L116.822 893.496C109.95 892.952 101.996 892.627 92.9594 892.521C83.9225 892.415 75.4278 892.602 67.4752 893.082Z" fill="url(#paint4_linear_189151_956)"/>
<path d="M39.8313 760.264L67.1162 571.344L87.7318 574.324L60.447 763.245L39.8313 760.264ZM70.9091 752.075L94.6395 587.766L114.084 590.577L90.3534 754.887L70.9091 752.075ZM95.67 779.345L126.035 569.094L147.12 572.142L116.754 782.393L95.67 779.345ZM150.187 787.705L180.789 575.814L201.639 578.828L171.037 790.72L150.187 787.705ZM63.2211 682.767L67.4187 653.702L123.409 661.797L119.211 690.862L63.2211 682.767ZM35.8275 627.36L46.387 597.3C50.5984 601.259 54.5088 605.095 58.1181 608.807C61.7274 612.52 64.8465 615.762 67.4754 618.535L57.6295 641.997C54.4869 639.469 50.8758 636.873 46.7962 634.21C42.7391 631.39 39.0829 629.106 35.8275 627.36ZM183.352 793.218C184.215 783.931 185.258 773.393 186.482 761.606C187.573 749.64 188.765 736.97 190.058 723.598C191.218 710.046 192.378 696.495 193.538 682.943L212.48 685.921C211.589 698.714 210.765 711.596 210.008 724.568C209.094 737.517 208.26 749.919 207.504 761.774C206.592 773.607 205.761 784.334 205.009 793.956L183.352 793.218ZM133.028 737.606L136.921 710.651L222.195 722.98C228.442 723.883 233.003 725.42 235.879 727.59C238.777 729.605 240.691 732.912 241.62 737.513C242.528 742.271 242.686 747.797 242.096 754.093C241.662 760.411 240.813 767.946 239.549 776.696C236 776.981 232.083 777.611 227.796 778.586C223.689 779.428 220.027 780.494 216.811 781.784C217.487 778.213 218.162 774.641 218.837 771.07C219.379 767.319 219.853 764.038 220.259 761.225C220.531 758.234 220.747 756.191 220.905 755.097C221.153 753.378 221.088 752.172 220.71 751.48C220.198 750.608 219.161 750.059 217.599 749.833L133.028 737.606ZM128.949 692.988L147.684 679.185C148.45 688.23 148.824 698.334 148.806 709.498C148.632 720.639 148.19 731.982 147.48 743.524C146.769 755.067 145.814 766.096 144.615 776.61C142.204 776.74 139.269 777.193 135.808 777.969C132.371 778.589 129.402 779.276 126.901 780.031C127.899 769.807 128.686 759.392 129.261 748.787C129.858 738.025 130.143 727.777 130.114 718.042C130.107 708.15 129.719 699.799 128.949 692.988ZM135.911 672.937L139.77 646.216C152.354 647.397 164.316 647.372 175.655 646.14C187.016 644.752 197.241 642.401 206.329 639.089C215.284 635.598 222.51 631.378 228.008 626.43C233.349 621.459 236.472 615.849 237.374 609.599C237.803 606.63 236.836 604.496 234.472 603.197C232.131 601.742 227.648 600.216 221.023 598.62C223.905 596.325 226.566 593.36 229.004 589.724C231.442 586.088 233.456 582.631 235.046 579.351C243.745 582.044 250.179 584.969 254.347 588.124C258.538 591.122 261.199 594.777 262.33 599.089C263.484 603.243 263.609 608.446 262.706 614.697C261.172 625.323 256.805 634.582 249.607 642.474C242.408 650.367 233.103 656.838 221.691 661.889C210.279 666.939 197.263 670.401 182.642 672.275C168.022 674.15 152.445 674.37 135.911 672.937ZM194.614 617.534L206.267 594.812C214.599 603.355 221.746 613.481 227.708 625.19C233.537 636.721 238.203 649.121 241.708 662.39C245.391 675.525 248.171 688.848 250.046 702.36C247.903 702.848 245.301 703.748 242.242 705.06C239.361 706.239 236.38 707.563 233.298 709.031C230.216 710.5 227.714 711.813 225.793 712.971C225.032 700.578 223.445 688.384 221.031 676.39C218.462 664.373 215.043 653.27 210.775 643.082C206.529 632.737 201.142 624.221 194.614 617.534ZM152.97 639.271L139.04 621.464C141.279 617.002 143.93 612.44 146.995 607.778C150.06 603.117 153.247 598.712 156.557 594.564C159.71 590.394 162.739 587.083 165.645 584.631L180.879 603.345C177.996 605.64 174.912 608.783 171.625 612.775C168.338 616.766 165.006 621.07 161.628 625.687C158.251 630.303 155.365 634.831 152.97 639.271ZM30.4806 725.652L25.8357 699.855C29.5443 697.36 33.6988 695.089 38.2993 693.042C42.7662 690.817 46.6517 689.305 49.9558 688.506L55.8032 715.913C52.3881 716.376 48.3134 717.542 43.5793 719.41C38.689 721.255 34.3228 723.336 30.4806 725.652Z" fill="url(#paint5_linear_189151_956)"/>
<path d="M172.011 506.24L270.48 319.905L296.427 333.632L197.959 519.966L172.011 506.24ZM239.342 404.161C257.458 408.387 275.376 410.454 293.096 410.363C310.816 410.271 327.714 407.513 343.791 402.087C359.941 396.521 374.888 387.997 388.631 376.515C389.338 379.568 390.46 383.019 391.996 386.868C393.606 390.577 395.285 394.323 397.035 398.106C398.998 401.823 400.796 405.007 402.43 407.658C386.414 419.724 369.417 428.413 351.437 433.725C333.531 438.897 314.631 441.222 294.737 440.699C274.703 440.102 253.729 437.4 231.814 432.594L239.342 404.161ZM157.322 397.741L171.816 370.314C182.344 376.062 193.39 382.352 204.953 389.183C216.45 395.801 227.824 403.158 239.075 411.253C250.327 419.349 260.956 428.454 270.961 438.569C280.901 448.471 289.611 459.687 297.091 472.216C304.506 484.533 310.19 498.434 314.144 513.921C318.172 529.268 319.867 546.327 319.229 565.099C314.848 565.282 309.713 566.048 303.824 567.398C297.934 568.747 292.705 570.535 288.137 572.762C289.243 555.13 288.156 539.285 284.876 525.227C281.455 511.094 276.448 498.444 269.855 487.276C263.196 475.895 255.413 465.795 246.508 456.976C237.462 448.084 227.794 440.201 217.503 433.328C207.286 426.315 197.02 419.902 186.704 414.088C176.389 408.274 166.595 402.825 157.322 397.741Z" fill="url(#paint6_linear_189151_956)"/>
<path d="M352.261 290.104L435.869 213.481L453.615 232.866L370.007 309.489L352.261 290.104ZM416.283 174.907L436.53 156.351L526.382 254.498L506.135 273.054L416.283 174.907ZM353.783 224.798L374.205 206.082L508.344 352.604L487.922 371.32L353.783 224.798ZM441.183 119.007L461.954 99.9717L585.7 235.143C591.349 241.313 594.856 246.663 596.222 251.193C597.81 255.733 597.599 260.529 595.591 265.581C593.476 270.517 589.722 275.884 584.33 281.682C579.045 287.596 572.388 294.232 564.359 301.591C562.314 299.825 559.659 297.976 556.393 296.045C553.233 294.23 549.904 292.463 546.405 290.745C543.129 289.037 540.062 287.673 537.203 286.654C543.118 281.661 548.689 276.877 553.915 272.301C559.035 267.609 562.468 264.463 564.213 262.863C565.736 261.254 566.58 259.838 566.745 258.616C566.92 257.171 566.262 255.634 564.769 254.004L441.183 119.007ZM373.679 176.054L403.224 178.524C398.558 188.153 392.81 198.238 385.982 208.778C379.154 219.318 371.826 229.78 363.999 240.165C356.289 250.442 348.598 260.274 340.927 269.66C338.34 267.534 334.967 265.487 330.809 263.516C326.545 261.429 322.871 259.871 319.789 258.842C325.114 252.036 330.448 245.006 335.792 237.753C341.136 230.501 346.199 223.292 350.98 216.126C355.878 208.854 360.263 201.838 364.133 195.08C368.003 188.321 371.185 181.979 373.679 176.054ZM393.738 268.792L413.632 262.122C417.39 270.668 420.954 279.82 424.324 289.579C427.703 299.114 430.738 308.858 433.429 318.81C436.014 328.645 438.046 338.345 439.525 347.908C441.015 357.249 441.637 365.992 441.391 374.139C438.774 372.684 435.707 371.32 432.189 370.048C428.67 368.776 425.094 367.557 421.459 366.392C417.941 365.12 414.747 364.086 411.878 363.29C412.298 356.268 412.126 348.717 411.363 340.638C410.717 332.452 409.571 324.188 407.927 315.846C406.292 307.282 404.254 298.979 401.814 290.938C399.375 282.896 396.683 275.515 393.738 268.792ZM427.515 270.274C430.21 269.946 434.301 269.622 439.788 269.304C445.168 268.87 450.994 268.455 457.266 268.06C463.538 267.665 469.301 267.415 474.555 267.31C479.819 266.982 483.57 266.756 485.81 266.63L490.393 295.831C486.293 295.092 481.461 294.489 475.897 294.021C470.227 293.437 464.328 292.955 458.202 292.574C452.192 292.087 446.453 291.779 440.986 291.651C435.413 291.406 430.614 291.307 426.591 291.354L427.515 270.274Z" fill="url(#paint7_linear_189151_956)"/>
<path d="M571.744 90.4225L663.361 51.8066L671.356 70.7945L579.739 109.41L571.744 90.4225ZM653.203 191.776C661.517 200.95 669.889 207.615 678.317 211.772C686.83 215.722 695.571 217.777 704.542 217.936C713.659 218.034 723.189 216.673 733.131 213.853C743.013 210.887 753.552 207.044 764.75 202.325C767.367 201.221 771.221 199.597 776.311 197.452C781.546 195.245 787.291 192.824 793.544 190.188C799.797 187.552 806.123 184.886 812.522 182.189C818.859 179.347 824.791 176.761 830.317 174.432C835.782 171.957 840.083 169.973 843.221 168.479C842.64 171.979 842.427 176.352 842.581 181.598C842.796 186.989 843.348 191.554 844.237 195.291L773.779 224.988C760.254 230.689 747.556 235.099 735.685 238.218C723.959 241.276 712.68 242.346 701.849 241.429C691.079 240.658 680.511 237.317 670.146 231.406C659.926 225.434 649.591 216.342 639.14 204.128L653.203 191.776ZM636.629 162.784L660.27 159.758C660.479 172.862 658.989 185.997 655.799 199.162C652.61 212.328 648.383 224.046 643.118 234.318C641.488 233.292 639.298 232.158 636.55 230.918C633.74 229.533 630.889 228.25 627.995 227.071C625.186 225.686 622.736 224.748 620.647 224.258C625.881 215.542 629.909 205.792 632.731 195.008C635.554 184.224 636.853 173.483 636.629 162.784ZM592.196 105.445L608.878 101.754C610.855 110.515 611.775 119.208 611.639 127.831C611.441 136.309 610.13 143.972 607.705 150.819C605.844 150.061 603.165 149.391 599.667 148.81C596.169 148.229 593.291 147.9 591.033 147.824C593.29 141.39 594.44 134.566 594.485 127.352C594.675 120.076 593.912 112.774 592.196 105.445ZM644.933 177.016L683.325 160.834L691.228 179.604L643.456 199.739L644.933 177.016ZM678.526 162.857L683.107 160.926L686.758 158.616L703.602 158.969C705.633 175.588 705.123 191.051 702.072 205.357C699.104 219.457 694.166 232.332 687.256 243.982C680.553 255.716 672.334 266.29 662.599 275.705C660.846 274.388 658.534 272.964 655.663 271.432C652.999 269.985 650.19 268.6 647.235 267.275C644.28 265.951 641.757 265.044 639.668 264.554C649.272 256.051 657.339 246.741 663.866 236.623C670.539 226.443 675.352 215.506 678.304 203.811C681.257 192.116 681.882 179.774 680.18 166.785L678.526 162.857ZM601.178 60.2846L622.555 51.2742L665.745 153.853L644.368 162.863L601.178 60.2846ZM601.65 129.728L606.711 115.517C609.773 116.282 612.854 117.297 615.954 118.56C619.2 119.761 621.772 120.99 623.67 122.246L618.507 138.043C616.463 136.848 613.829 135.474 610.606 133.92C607.468 132.159 604.482 130.762 601.65 129.728ZM649.038 81.2296L664.847 77.9067C666.295 85.0059 666.997 92.1627 666.952 99.3771C666.992 106.385 665.979 112.722 663.913 118.39C662.176 117.923 659.6 117.296 656.186 116.507C652.917 115.658 650.226 115.164 648.114 115.027C650.157 109.712 651.185 104.224 651.199 98.5643C651.152 92.7592 650.432 86.9809 649.038 81.2296ZM658.066 103.893L663.288 88.8434C667.092 90.1523 671.019 91.7522 675.069 93.6432C679.057 95.3886 682.311 97.0154 684.829 98.5237L679.413 114.941C677.04 113.371 673.798 111.568 669.687 109.532C665.66 107.289 661.787 105.409 658.066 103.893ZM627.528 121.648L643.166 120.967C642.54 128.427 641.259 136.162 639.324 144.173C637.328 152.039 634.815 159.694 631.785 167.139C628.694 174.438 625.162 180.895 621.191 186.509C618.611 184.855 615.399 183.125 611.557 181.318C607.652 179.366 604.345 178.019 601.636 177.277C605.914 172.39 609.813 166.806 613.332 160.525C616.852 154.244 619.856 147.753 622.342 141.052C624.913 134.143 626.641 127.675 627.528 121.648ZM649.182 118.174C651.647 118.335 655.187 118.813 659.803 119.608C664.358 120.259 669.222 121.035 674.397 121.938C679.656 122.634 684.52 123.41 688.99 124.267C693.4 124.979 696.649 125.579 698.739 126.069L691.923 147.702C689.236 146.607 685.711 145.352 681.347 143.936C676.923 142.374 672.177 140.863 667.109 139.401C662.187 137.878 657.429 136.542 652.837 135.394C648.389 134.185 644.634 133.198 641.572 132.432L649.182 118.174ZM662.935 45.3046L767.205 1.35602L775.567 21.217L671.298 65.1655L662.935 45.3046ZM730.952 98.8714L758.001 87.4705L764.893 103.839L737.844 115.24L730.952 98.8714ZM744.919 132.046L771.968 120.645L778.86 137.014L751.812 148.415L744.919 132.046ZM737.51 174.23L811.458 143.062L819.269 161.613L745.321 192.782L737.51 174.23ZM716.24 80.4016L730.637 74.3334L770.703 169.491L756.306 175.559L716.24 80.4016ZM740.89 70.0121L755.287 63.9439L795.444 159.32L781.047 165.388L740.89 70.0121ZM707.839 36.6575L734.257 26.8076C735.682 34.2591 736.858 41.7298 737.786 49.2197C738.859 56.6483 739.606 63.1005 740.028 68.5763L719.603 74.3584C718.653 70.4757 717.508 66.3326 716.168 61.9292C714.973 57.4645 713.633 53.0611 712.147 48.719C710.6 44.2313 709.164 40.2108 707.839 36.6575ZM681.749 79.0064L779.692 37.7242L832.715 163.656L812.864 172.022L767.561 64.4242L708.664 89.2487L754.059 197.065L734.863 205.156L681.749 79.0064Z" fill="url(#paint8_linear_189151_956)"/>
<path d="M907.914 7.18948L936.747 5.5768L939.032 46.4841L910.2 48.0968L907.914 7.18948ZM865.935 36.578L981.265 30.1273L982.705 55.9012L867.375 62.352L865.935 36.578ZM981.395 62.1417L1085.85 56.299L1087.36 83.2553L982.901 89.098L981.395 62.1417ZM906.277 96.7045L907.414 117.04L948.772 114.727L947.636 94.3912L906.277 96.7045ZM879.222 74.9724L973.992 69.6717L977.731 136.589L882.961 141.89L879.222 74.9724ZM916.688 130.279L943.866 128.758L947.803 199.223C948.129 205.056 947.689 209.903 946.482 213.766C945.433 217.62 943.001 220.76 939.185 223.188C935.361 225.457 930.862 226.974 925.689 227.738C920.674 228.493 914.779 229.06 908.004 229.438C907.162 225.69 905.739 221.421 903.732 216.632C901.884 211.833 899.996 207.748 898.069 204.377C902.017 204.314 905.881 204.177 909.663 203.966C913.601 203.745 916.122 203.604 917.225 203.543C919.589 203.41 920.709 202.241 920.585 200.034L916.688 130.279ZM885.354 150.77L911.182 154.781C909.444 166.105 906.752 177.325 903.106 188.44C899.617 199.546 895.484 209.028 890.708 216.886C889.202 215.389 887.052 213.69 884.259 211.791C881.632 210.04 878.927 208.294 876.143 206.552C873.35 204.653 870.899 203.208 868.789 202.219C873.006 195.658 876.439 187.797 879.088 178.635C881.894 169.465 883.983 160.176 885.354 150.77ZM949.927 152.376L971.72 143.567C975.372 149.53 978.753 156.299 981.863 163.873C985.122 171.281 987.531 177.63 989.091 182.919L966.196 193.213C964.776 187.6 962.511 181.006 959.401 173.431C956.44 165.691 953.282 158.672 949.927 152.376ZM1036.85 15.1583L1058.51 3.98448C1064.18 9.20222 1069.41 15.2346 1074.22 22.0816C1079.02 28.771 1082.6 34.8959 1084.97 40.4563L1062.21 53.115C1060 47.5457 1056.56 41.2544 1051.91 34.2409C1047.24 27.0698 1042.22 20.7089 1036.85 15.1583ZM1004.8 1.53337L1032.21 0L1035.61 60.7698C1036.28 72.7504 1036.46 85.8653 1036.15 100.114C1035.84 114.364 1034.36 128.915 1031.71 143.77C1029.05 158.466 1024.64 172.866 1018.48 186.968C1012.47 201.062 1003.95 214.031 992.914 225.875C991.084 224.238 988.689 222.395 985.73 220.347C982.779 218.456 979.671 216.575 976.405 214.702C973.297 212.82 970.452 211.397 967.87 210.435C978.492 199.72 986.611 188.039 992.227 175.391C997.991 162.576 1002.08 149.459 1004.49 136.042C1007.06 122.615 1008.47 109.648 1008.72 97.1419C1008.96 84.4779 1008.78 72.865 1008.19 62.3032L1004.8 1.53337ZM1029.07 96.478L1054.83 95.0372L1059.95 186.783C1060 187.571 1060.12 188.355 1060.32 189.134C1060.52 189.756 1060.78 190.216 1061.11 190.514C1062.12 191.564 1063.33 192.05 1064.75 191.97C1065.38 191.935 1066.17 191.891 1067.11 191.838C1068.06 191.785 1068.84 191.741 1069.48 191.706C1070.26 191.662 1071.05 191.539 1071.83 191.337C1072.6 190.978 1073.12 190.553 1073.41 190.063C1074.02 189.554 1074.45 188.74 1074.7 187.619C1074.95 186.498 1075.13 185.381 1075.22 184.269C1075.42 182.044 1075.46 178.563 1075.35 173.825C1075.24 168.929 1074.93 163.491 1074.44 157.509C1076.92 159.426 1080.19 161.378 1084.25 163.365C1088.31 165.351 1092.02 166.725 1095.39 167.486C1095.47 171.751 1095.47 176.099 1095.4 180.531C1095.48 184.796 1095.38 188.676 1095.1 192.17C1094.98 195.656 1094.66 198.362 1094.14 200.289C1093.04 206.043 1090.52 210.533 1086.59 213.757C1084.93 215.115 1082.78 216.184 1080.13 216.965C1077.66 217.894 1075.16 218.429 1072.64 218.57C1071.22 218.649 1069.64 218.737 1067.91 218.834C1066.18 218.931 1064.44 219.028 1062.71 219.125C1061.13 219.213 1059.72 219.292 1058.46 219.363C1055.3 219.539 1052.21 219.238 1049.16 218.46C1046.11 217.681 1043.43 216.25 1041.1 214.167C1039.59 212.67 1038.39 211.076 1037.51 209.386C1036.63 207.696 1035.94 205.363 1035.46 202.385C1034.98 199.407 1034.59 195.396 1034.31 190.352L1029.07 96.478Z" fill="url(#paint9_linear_189151_956)"/>
<path d="M1255.02 161.341L1340.83 186.683L1336.94 199.857L1251.13 174.515L1255.02 161.341ZM1248.58 183.146L1334.4 208.489L1330.51 221.663L1244.7 196.32L1248.58 183.146ZM1232.48 202.59L1336.68 233.363L1331.86 249.717L1227.66 218.944L1232.48 202.59ZM1310.98 131.444L1333.98 144.657C1329.85 148.048 1325.94 151.256 1322.25 154.282C1318.56 157.308 1315.24 159.946 1312.27 162.198L1294.87 150.888C1297.52 148.048 1300.36 144.852 1303.38 141.3C1306.55 137.792 1309.09 134.507 1310.98 131.444ZM1228.29 105.543L1248.3 118.86C1239.35 128.564 1229.1 137.637 1217.56 146.082C1206.07 154.375 1195.01 160.904 1184.39 165.67C1183.73 163.994 1182.73 161.805 1181.39 159.104C1180.09 156.252 1178.7 153.453 1177.2 150.707C1175.76 147.81 1174.4 145.434 1173.14 143.58C1182.79 139.847 1192.57 134.586 1202.47 127.797C1212.37 121.009 1220.98 113.59 1228.29 105.543ZM1270.94 117.399L1291.31 130.329C1283.45 139.695 1274.5 148.574 1264.45 156.966C1254.41 165.358 1244.7 172.041 1235.34 177.012C1234.53 175.292 1233.36 173.134 1231.82 170.54C1230.28 167.946 1228.57 165.383 1226.68 162.85C1224.95 160.363 1223.35 158.245 1221.89 156.497C1230.79 152.541 1239.57 147.065 1248.21 140.07C1256.9 132.924 1264.48 125.367 1270.94 117.399ZM1292.51 153.892L1315.21 160.597L1295.51 227.376L1272.81 220.672L1292.51 153.892ZM1205.46 233.13L1229.98 240.37L1222.74 264.901C1221.93 267.627 1221.95 269.525 1222.79 270.595C1223.62 271.665 1226.01 272.781 1229.94 273.943C1230.85 274.211 1232.29 274.636 1234.26 275.217C1236.38 275.843 1238.65 276.513 1241.07 277.228C1243.49 277.943 1245.76 278.614 1247.88 279.24C1250.15 279.91 1251.81 280.402 1252.87 280.714C1254.99 281.34 1256.69 281.431 1257.97 280.987C1259.41 280.587 1260.71 279.243 1261.88 276.954C1263.05 274.666 1264.5 271.143 1266.23 266.387C1268.16 268.768 1271.07 271.439 1274.97 274.401C1278.87 277.363 1282.3 279.691 1285.25 281.387C1282.17 289.038 1278.95 294.67 1275.58 298.285C1272.31 302.095 1268.57 304.199 1264.34 304.595C1260.21 305.188 1255.2 304.613 1249.3 302.87C1248.24 302.557 1246.72 302.11 1244.76 301.529C1242.94 300.993 1240.75 300.345 1238.17 299.585C1235.75 298.87 1233.33 298.155 1230.91 297.44C1228.64 296.769 1226.52 296.143 1224.55 295.562C1222.58 294.981 1221.15 294.557 1220.24 294.289C1212.07 291.875 1206.03 289.187 1202.13 286.225C1198.24 283.263 1196.06 279.492 1195.6 274.912C1195.25 270.528 1196.08 264.929 1198.09 258.115L1205.46 233.13ZM1220.26 228.119L1239.92 218.368C1243.77 221.481 1247.72 225.116 1251.76 229.272C1255.8 233.428 1259.51 237.57 1262.9 241.698C1266.49 245.72 1269.24 249.496 1271.16 253.027L1249.96 263.805C1248.15 260.471 1245.65 256.686 1242.45 252.451C1239.26 248.216 1235.67 243.944 1231.67 239.637C1227.83 235.374 1224.03 231.535 1220.26 228.119ZM1278.65 259.436L1303 255.516C1305.75 261.266 1308.38 267.394 1310.91 273.901C1313.43 280.408 1315.57 286.803 1317.34 293.086C1319.26 299.414 1320.48 305.042 1321 309.969L1294.72 314.555C1294.5 309.717 1293.6 304.102 1292.03 297.712C1290.57 291.519 1288.62 285.017 1286.19 278.207C1283.91 271.442 1281.39 265.185 1278.65 259.436ZM1176.29 221.554L1196.04 235.78C1191.31 243.438 1185.87 250.721 1179.72 257.629C1173.57 264.538 1166.51 269.779 1158.55 273.353L1141.77 254.078C1148.76 251.037 1155.25 246.615 1161.24 240.812C1167.27 234.857 1172.29 228.438 1176.29 221.554ZM1266.43 138.538L1354.06 164.417L1349.31 180.544L1250.33 151.312L1266.43 138.538ZM1247.02 153.301L1274.86 141.767L1251.81 219.903L1229.33 213.266L1247.02 153.301ZM1265.57 77.0447L1293.95 85.4251L1285.37 114.499L1256.99 106.119L1265.57 77.0447ZM1191.57 72.7232L1371.83 125.956L1365.33 147.989L1185.07 94.7557L1191.57 72.7232ZM1176.82 68.3653L1201.56 75.6731L1181.86 142.452C1179.09 151.841 1175.73 162.124 1171.77 173.302C1168.01 184.374 1163.54 195.645 1158.34 207.116C1153.34 218.48 1147.75 229.341 1141.57 239.697C1135.39 250.053 1128.62 259.081 1121.24 266.781C1120.37 264.713 1118.96 262.24 1117.02 259.36C1115.07 256.48 1113.02 253.654 1110.88 250.88C1108.69 248.259 1106.75 246.203 1105.05 244.714C1111.7 237.788 1117.66 229.837 1122.94 220.861C1128.27 211.733 1132.98 202.178 1137.08 192.193C1141.37 182.103 1145.12 172.18 1148.33 162.427C1151.68 152.719 1154.61 143.624 1157.12 135.144L1176.82 68.3653ZM1203.48 139.453L1232.59 123.603L1232.68 124.124L1205.34 216.797L1182.64 210.093L1203.48 139.453Z" fill="url(#paint10_linear_189151_956)"/>
<path d="M1495.24 262.272L1602.93 340.812L1587.59 361.864L1479.9 283.324L1495.24 262.272ZM1554.42 269.092L1577.75 286.112L1553.21 319.795L1529.88 302.775L1554.42 269.092ZM1550.47 344.464L1564.71 368.334C1550.28 374.215 1535.15 378.622 1519.35 381.553C1503.76 384.45 1488.08 386.006 1472.3 386.221C1456.75 386.401 1441.39 385.363 1426.24 383.106C1426.54 379.218 1426.43 374.546 1425.91 369.089C1425.61 363.598 1424.96 358.728 1423.96 354.479C1437.6 357.198 1451.79 358.757 1466.54 359.156C1481.28 359.555 1495.87 358.567 1510.29 356.191C1524.72 353.816 1538.11 349.907 1550.47 344.464ZM1531.08 391.577L1545.48 416.44C1529.13 423.073 1512.29 427.693 1494.97 430.297C1477.64 432.902 1460.14 433.614 1442.44 432.434C1424.75 431.254 1407.1 428.542 1389.5 424.298C1390.01 420.375 1390.17 415.604 1389.96 409.986C1389.76 404.367 1389.23 399.196 1388.38 394.47C1404.38 399.305 1420.72 402.619 1437.37 404.413C1454.03 406.207 1470.33 406.08 1486.28 404.031C1502.22 401.982 1517.16 397.831 1531.08 391.577ZM1523.84 304.231L1541.35 328.435C1531.49 331.791 1521.3 334.914 1510.8 337.805C1500.52 340.661 1491.38 342.886 1483.38 344.479L1470.56 324.285C1476 322.979 1481.84 321.273 1488.06 319.167C1494.5 317.026 1500.79 314.683 1506.95 312.135C1513.32 309.554 1518.95 306.919 1523.84 304.231ZM1459.2 310.134L1484.09 305.721C1486.54 312.003 1488.99 318.965 1491.42 326.605C1493.86 334.246 1496.05 341.701 1497.98 348.969C1500 356.111 1501.38 362.392 1502.12 367.814L1474.69 373.304C1474.42 368.033 1473.44 361.746 1471.73 354.443C1470.11 347.012 1468.2 339.459 1465.98 331.784C1463.85 323.981 1461.59 316.764 1459.2 310.134ZM1458.45 418.905L1485.41 416.88C1487.49 423.673 1489.61 431.081 1491.77 439.104C1494.15 447.093 1496.28 454.896 1498.15 462.513C1500.15 470.223 1501.54 476.899 1502.31 482.541L1472.61 485.504C1472.45 480.106 1471.58 473.517 1470.03 465.738C1468.38 458.087 1466.5 450.075 1464.4 441.704C1462.42 433.425 1460.44 425.826 1458.45 418.905ZM1405.83 250.701L1461.88 291.576L1449.19 308.991L1393.15 268.117L1405.83 250.701ZM1444.94 198.63L1499.84 238.667L1487.29 255.891L1432.39 215.854L1444.94 198.63ZM1386.73 276.92L1442.78 317.795L1430.23 335.019L1374.18 294.145L1386.73 276.92ZM1416.89 217.439L1486.51 268.218L1473.27 286.399L1403.64 235.62L1416.89 217.439ZM1377.44 310.585L1423.92 344.484L1381.39 402.855L1334.91 368.956L1348.16 350.775L1375.51 370.724L1391.54 348.715L1364.19 328.766L1377.44 310.585ZM1367.11 303.052L1386.04 316.863L1338.08 382.698L1319.14 368.887L1367.11 303.052Z" fill="url(#paint11_linear_189151_956)"/>
<path d="M1640.42 529.138L1707.99 628.369L1686.28 643.17L1618.71 543.939L1640.42 529.138ZM1590.45 548.296L1669.75 664.75L1648.04 679.551L1568.74 563.097L1590.45 548.296ZM1730.11 523.309L1745.97 546.6L1562.28 671.809L1546.42 648.518L1730.11 523.309ZM1700.72 505.803L1710.23 531.129C1700.28 533.9 1689.81 535.779 1678.84 536.765C1667.95 537.882 1658.28 537.979 1649.82 537.057C1650.02 534.822 1650.04 532.041 1649.87 528.714C1649.71 525.388 1649.43 522.041 1649.05 518.672C1648.79 515.215 1648.44 512.307 1647.98 509.947C1655.78 511.313 1664.36 511.577 1673.72 510.739C1683.21 509.811 1692.21 508.166 1700.72 505.803ZM1728.8 562.603L1750.71 573.747C1748.8 579.634 1746.49 585.788 1743.8 592.209C1741.24 598.541 1738.61 604.632 1735.91 610.484C1733.21 616.335 1730.52 621.223 1727.85 625.147L1703.64 613.567C1706.4 609.773 1709.29 605.037 1712.29 599.357C1715.43 593.589 1718.41 587.45 1721.24 580.94C1724.15 574.561 1726.67 568.449 1728.8 562.603ZM1550.32 474.21C1558.1 481.708 1567.55 490.546 1578.68 500.725C1589.95 510.815 1601.27 520.861 1612.67 530.862L1593.41 548.003C1582.72 539.046 1571.95 529.958 1561.09 520.74C1550.32 511.652 1540.5 503.255 1531.63 495.55L1550.32 474.21ZM1615.64 434.272L1659.88 499.251L1638.17 514.052L1593.92 449.073L1615.64 434.272ZM1668.73 432.752L1684.06 455.26L1524.83 563.802C1519.22 567.624 1514.45 570.015 1510.52 570.974C1506.59 571.933 1502.67 571.36 1498.75 569.253C1494.84 567.147 1490.97 563.858 1487.16 559.385C1483.22 555.002 1478.94 549.418 1474.32 542.633C1477.06 540.197 1480 536.949 1483.15 532.888C1486.4 528.958 1489.1 525.208 1491.25 521.64C1493.69 525.512 1496.05 529.255 1498.32 532.867C1500.72 536.39 1502.36 538.804 1503.25 540.108C1504.14 541.413 1505.02 542.149 1505.9 542.315C1507 542.523 1508.2 542.183 1509.5 541.294L1668.73 432.752Z" fill="url(#paint12_linear_189151_956)"/>
<path d="M1673.63 841.803L1648.36 848.4L1617.75 731.024L1636.91 724.349L1762.32 764.157L1769 789.78L1715.35 774.145L1650.96 754.862L1673.63 841.803ZM1770.81 796.718L1607.98 839.221L1599.58 806.995L1762.41 764.493L1770.81 796.718Z" fill="url(#paint13_linear_189151_956)"/>
<path d="M1631.99 1015.18L1606 1015.91L1602.78 900.777L1624.96 900.157L1684.83 952.971C1691.07 958.273 1696.54 962.438 1701.25 965.469C1706.03 968.497 1710.3 970.653 1714.03 971.937C1717.85 973.296 1721.45 973.928 1724.84 973.833C1729.92 973.691 1734.25 972.722 1737.82 970.925C1741.47 969.126 1744.25 966.542 1746.16 963.173C1748.07 959.88 1748.96 955.845 1748.83 951.067C1748.69 945.981 1747.33 941.623 1744.76 937.993C1742.2 934.44 1738.69 931.761 1734.25 929.957C1729.81 928.23 1724.81 927.445 1719.27 927.599L1718.34 894.193C1728.35 893.913 1737.58 896.046 1746.03 900.591C1754.56 905.135 1761.41 911.691 1766.58 920.262C1771.83 928.83 1774.63 939.086 1774.96 951.031C1775.29 962.821 1773.64 972.816 1770.01 981.015C1766.47 989.29 1761.17 995.607 1754.13 999.969C1747.16 1004.41 1738.74 1006.76 1728.89 1007.04C1723.34 1007.19 1717.89 1006.46 1712.52 1004.83C1707.23 1003.21 1701.93 1000.81 1696.6 997.643C1691.35 994.551 1686 990.767 1680.55 986.292C1675.11 981.817 1669.46 976.846 1663.6 971.38L1629.98 943.051L1631.99 1015.18Z" fill="url(#paint14_linear_189151_956)"/>
<path d="M1747.84 1122.21L1722.78 1117.15L1718.42 1138.73L1743.48 1143.8L1747.84 1122.21ZM1774.8 1102.29L1760.32 1174.02L1690.95 1160L1705.43 1088.27L1774.8 1102.29ZM1696.54 1076.08L1678.4 1165.92L1654.5 1161.09L1672.65 1071.25L1696.54 1076.08ZM1681.42 1093.56L1676.31 1118.87C1669.76 1116.25 1662.86 1113.33 1655.63 1110.09C1648.51 1107.05 1641.56 1104.03 1634.75 1101.04C1628.11 1098.09 1622.31 1095.31 1617.36 1092.69L1626.55 1068.7C1631.5 1071.31 1637.07 1074.05 1643.25 1076.91C1649.56 1079.95 1655.97 1082.86 1662.5 1085.63C1669.15 1088.59 1675.45 1091.23 1681.42 1093.56ZM1653.1 1095.09L1645.23 1134.09L1622.49 1129.49L1631.4 1085.38L1653.1 1095.09ZM1647.2 1124.34L1642.18 1149.18C1642.18 1149.18 1640.96 1148.85 1638.51 1148.19C1636.04 1147.69 1634.04 1147.21 1632.53 1146.74C1617.37 1142.87 1604.89 1139.3 1595.09 1136.03C1585.41 1132.95 1577.94 1130.07 1572.68 1127.4C1567.55 1124.91 1563.97 1122.33 1561.93 1119.66C1559.64 1116.63 1558.24 1113.6 1557.72 1110.6C1557.02 1107.72 1556.79 1104.45 1557.04 1100.8C1557.17 1097.76 1557.74 1093.77 1558.74 1088.82C1559.55 1083.99 1560.66 1078.9 1562.07 1073.54C1565.65 1074.11 1569.91 1074.16 1574.83 1073.71C1579.57 1073.38 1583.78 1072.46 1587.46 1070.95C1586.03 1075.65 1584.81 1080.08 1583.82 1084.22C1582.97 1088.4 1582.35 1091.5 1581.94 1093.51C1581.44 1095.18 1581.22 1096.67 1581.28 1097.97C1581.31 1099.42 1581.76 1100.8 1582.62 1102.1C1583.89 1103.81 1586.67 1105.58 1590.97 1107.41C1595.23 1109.4 1601.6 1111.74 1610.08 1114.42C1618.71 1117.13 1629.92 1120.2 1643.72 1123.63L1647.2 1124.34ZM1741.38 1242.68L1729.48 1301.64L1707.67 1297.23L1719.58 1238.27L1741.38 1242.68ZM1718.46 1191.17L1698.96 1287.74L1676.92 1283.29L1696.42 1186.72L1718.46 1191.17ZM1756.68 1232.72L1751.29 1259.42L1696.53 1248.35L1701.92 1221.65L1756.68 1232.72ZM1720.71 1180.03L1715.69 1204.87L1655.37 1192.67C1646.86 1190.95 1637.66 1188.69 1627.76 1185.89C1617.99 1183.27 1608.17 1180.07 1598.31 1176.31C1588.44 1172.54 1579.06 1167.99 1570.15 1162.64C1561.25 1157.3 1553.48 1151.14 1546.84 1144.16C1548.67 1143.08 1550.85 1141.43 1553.4 1139.2C1555.91 1137.13 1558.37 1134.89 1560.79 1132.48C1563.02 1130.19 1564.79 1128.22 1566.09 1126.55C1574.22 1134.95 1583.7 1141.78 1594.56 1147.04C1605.53 1152.48 1616.74 1156.76 1628.19 1159.88C1639.75 1163.18 1650.49 1165.83 1660.39 1167.84L1720.71 1180.03ZM1677.73 1199.13L1670.51 1263.63L1651.75 1262.01L1658.7 1197.7L1677.73 1199.13ZM1691.62 1221.26L1686.69 1245.64L1651.2 1238.46C1648.41 1237.9 1646.57 1237.85 1645.67 1238.31C1644.9 1238.96 1644.23 1240.68 1643.67 1243.46C1643.54 1244.08 1643.34 1245.09 1643.06 1246.48C1642.78 1247.87 1642.46 1249.42 1642.12 1251.12C1641.78 1252.83 1641.46 1254.37 1641.18 1255.77C1640.87 1257.31 1640.64 1258.47 1640.48 1259.25C1640.17 1260.8 1640.16 1262 1640.47 1262.87C1640.93 1263.77 1641.89 1264.61 1643.35 1265.39C1644.95 1266.19 1647.37 1267 1650.58 1267.81C1648.57 1269.82 1646.46 1272.7 1644.25 1276.44C1642.05 1280.18 1640.31 1283.62 1639.03 1286.74C1630.31 1283.69 1624.69 1280.06 1622.16 1275.84C1619.6 1271.78 1619.08 1265.96 1620.61 1258.37C1620.83 1257.29 1621.16 1255.67 1621.6 1253.5C1622 1251.49 1622.44 1249.32 1622.91 1247C1623.38 1244.68 1623.82 1242.51 1624.22 1240.5C1624.63 1238.49 1624.94 1236.94 1625.16 1235.86C1626.63 1228.58 1628.53 1223.17 1630.85 1219.61C1633.18 1216.06 1636.36 1213.88 1640.38 1213.08C1644.38 1212.44 1649.54 1212.76 1655.89 1214.04L1691.62 1221.26ZM1700.41 1280.55L1699.71 1284.03L1699.66 1287.88L1692.38 1304.77C1684.74 1301.94 1676.9 1298.91 1668.86 1295.67C1660.98 1292.47 1654.33 1289.51 1648.92 1286.81L1658.01 1266.9C1662.93 1268.86 1669.08 1271.07 1676.47 1273.53C1683.87 1275.99 1690.76 1278.11 1697.17 1279.89L1700.41 1280.55ZM1625.33 1196.75L1620.59 1220.2C1607.54 1217.07 1595.73 1213.4 1585.15 1209.16C1574.7 1205.12 1565.8 1199.78 1558.44 1193.13C1551.06 1186.65 1545.4 1178.01 1541.46 1167.23C1544.99 1166.49 1549.07 1164.99 1553.72 1162.7C1558.37 1160.42 1562.13 1158.12 1565.01 1155.81C1567.91 1164.6 1572.07 1171.49 1577.51 1176.45C1582.95 1181.42 1589.7 1185.44 1597.77 1188.52C1605.84 1191.6 1615.03 1194.34 1625.33 1196.75ZM1618.3 1231.57L1613.56 1255.02L1560.9 1244.37C1560.28 1244.24 1559.64 1244.2 1558.99 1244.23C1558.34 1244.26 1557.83 1244.39 1557.46 1244.64C1556.41 1245.07 1555.72 1246.06 1555.41 1247.61C1555.29 1248.23 1555.15 1248.93 1554.99 1249.7C1554.8 1250.63 1554.65 1251.4 1554.52 1252.02C1554.4 1252.64 1554.33 1253.35 1554.33 1254.16C1554.48 1254.99 1554.68 1255.6 1554.93 1255.97C1555.15 1256.5 1555.61 1256.99 1556.32 1257.46C1557.19 1257.96 1558.14 1258.39 1559.2 1258.76C1560.84 1259.42 1563.5 1260.2 1567.18 1261.1C1571.01 1262.04 1575.4 1263.01 1580.35 1264.01C1577.91 1265.77 1575.22 1268.29 1572.31 1271.56C1569.55 1274.87 1567.38 1278.06 1565.79 1281.12C1560.25 1279.84 1555 1278.37 1550.02 1276.72C1545.04 1275.07 1541.47 1273.62 1539.3 1272.38C1537.14 1271.14 1535.33 1269.73 1533.88 1268.14C1532.43 1266.56 1531.21 1264.62 1530.22 1262.33C1529.61 1260.6 1529.22 1258.5 1529.07 1256.06C1528.92 1253.61 1529.1 1251.15 1529.6 1248.67C1529.82 1247.59 1530.1 1246.2 1530.44 1244.5C1530.76 1242.95 1531.07 1241.4 1531.38 1239.85C1531.69 1238.31 1531.96 1236.99 1532.18 1235.91C1532.8 1232.81 1533.86 1229.96 1535.35 1227.37C1536.69 1224.74 1538.56 1222.62 1540.98 1221.01C1543.37 1219.56 1546.03 1218.73 1548.97 1218.52C1551.88 1218.47 1556.74 1219.13 1563.54 1220.5L1618.3 1231.57Z" fill="url(#paint15_linear_189151_956)"/>
<path d="M1561.47 1433.03L1550.12 1426.18L1511.64 1490.08L1523 1496.93L1561.47 1433.03ZM1590.87 1450.75L1579.52 1443.9L1541.04 1507.8L1552.39 1514.65L1590.87 1450.75ZM1623.81 1439.64L1557.24 1550.2L1477.97 1502.41L1544.54 1391.85L1623.81 1439.64ZM1537.44 1388.96L1523.51 1412.08L1443.83 1364.05L1457.76 1340.93L1537.44 1388.96ZM1509.39 1387.81L1484.59 1428.99L1463.51 1416.28L1488.3 1375.1L1509.39 1387.81ZM1478.2 1328.09C1473.96 1337.88 1468.93 1349.6 1463.12 1363.23C1457.3 1376.87 1451.47 1390.68 1445.63 1404.67L1423.4 1392.93C1428.43 1380.3 1433.5 1367.6 1438.61 1354.82C1443.72 1342.05 1448.38 1330.49 1452.6 1320.12L1478.2 1328.09ZM1462.81 1488.57L1434.34 1494.09C1434.73 1487.32 1435.33 1480.21 1436.13 1472.77C1436.84 1465.46 1437.8 1458.2 1439.01 1451C1440.13 1443.94 1441.37 1437.13 1442.74 1430.58C1445.5 1431.51 1449.01 1432.24 1453.29 1432.79C1457.56 1433.34 1461.26 1433.63 1464.37 1433.66C1463.46 1439.76 1462.79 1446.08 1462.35 1452.63C1461.9 1459.18 1461.75 1465.54 1461.91 1471.72C1461.98 1478.03 1462.28 1483.65 1462.81 1488.57ZM1502.75 1446.57L1488.58 1470.1L1423.7 1430.99C1420.45 1429.04 1418.16 1428.11 1416.8 1428.22C1415.58 1428.41 1414.28 1429.65 1412.9 1431.95C1412.57 1432.49 1412.08 1433.3 1411.43 1434.38C1410.7 1435.6 1409.93 1436.88 1409.11 1438.24C1408.3 1439.59 1407.56 1440.81 1406.91 1441.89C1406.18 1443.1 1405.61 1444.05 1405.2 1444.73C1404.31 1446.22 1404.16 1447.69 1404.75 1449.15C1405.34 1450.62 1407.04 1452.38 1409.85 1454.44C1412.72 1456.72 1417.15 1459.76 1423.15 1463.57C1420.01 1464.8 1416.34 1466.92 1412.14 1469.92C1407.99 1473.14 1404.54 1476.12 1401.77 1478.88C1393.39 1472.91 1387.37 1467.62 1383.7 1463.01C1379.89 1458.32 1377.99 1453.67 1378 1449.07C1377.92 1444.6 1379.48 1439.73 1382.65 1434.45C1383.22 1433.51 1384.04 1432.15 1385.09 1430.39C1386.15 1428.64 1387.29 1426.74 1388.51 1424.71C1389.65 1422.82 1390.75 1421 1391.81 1419.24C1392.87 1417.48 1393.69 1416.13 1394.26 1415.18C1398.33 1408.42 1402.34 1403.74 1406.3 1401.15C1410.04 1398.61 1414.41 1397.93 1419.41 1399.1C1424.42 1400.27 1430.57 1403.06 1437.87 1407.46L1502.75 1446.57ZM1646.09 1377.86L1656.15 1402.45C1652.3 1405.48 1647.89 1408.53 1642.9 1411.61C1637.97 1414.9 1633.11 1417.78 1628.31 1420.23C1623.44 1422.82 1619.08 1424.71 1615.23 1425.89L1603.71 1399.59C1607.61 1398.63 1612.02 1396.96 1616.95 1394.58C1621.8 1392.34 1626.85 1389.77 1632.11 1386.85C1637.36 1383.94 1642.02 1380.94 1646.09 1377.86ZM1597.7 1334.31L1608.21 1358.62C1604.28 1361.78 1599.95 1364.98 1595.24 1368.22C1590.53 1371.46 1585.77 1374.31 1580.98 1376.77C1576.24 1379.44 1572.01 1381.41 1568.3 1382.68L1556.45 1356.46C1560.14 1355.54 1564.37 1353.86 1569.17 1351.4C1574.1 1349.03 1579.06 1346.3 1584.04 1343.23C1588.94 1340.28 1593.5 1337.31 1597.7 1334.31ZM1494.69 1279.14C1498.08 1285.42 1502.16 1292.58 1506.91 1300.6C1511.79 1308.71 1517.04 1317.12 1522.65 1325.85C1528.4 1334.66 1534.29 1343.1 1540.31 1351.15L1514.1 1361.62C1508.6 1354.25 1503.08 1346.59 1497.54 1338.64C1492.14 1330.78 1486.81 1322.96 1481.55 1315.18C1476.42 1307.48 1471.6 1299.88 1467.1 1292.37L1494.69 1279.14Z" fill="url(#paint16_linear_189151_956)"/>
<path d="M1396.11 1652.81L1375.04 1670.06L1326.93 1611.22C1320.43 1603.28 1313.74 1594.47 1306.86 1584.81C1300.08 1575.27 1293.64 1565.03 1287.56 1554.1C1281.45 1543.39 1276.5 1532.35 1272.7 1520.97C1268.91 1509.6 1266.8 1498.16 1266.37 1486.68C1268.72 1486.8 1271.59 1486.7 1274.98 1486.36C1278.38 1486.03 1281.85 1485.53 1285.39 1484.88C1288.81 1484.32 1291.63 1483.65 1293.84 1482.86C1294.23 1493.56 1296.15 1504.02 1299.62 1514.24C1303.08 1524.46 1307.48 1534.32 1312.81 1543.83C1318.14 1553.34 1323.91 1562.28 1330.14 1570.64C1336.25 1579.11 1342.2 1586.89 1348 1593.97L1396.11 1652.81ZM1314.7 1612.35L1293.82 1629.45L1237.16 1560.16C1234.26 1556.62 1231.93 1554.76 1230.15 1554.58C1228.37 1554.4 1225.71 1555.76 1222.17 1558.66C1221.44 1559.26 1220.1 1560.36 1218.14 1561.96C1216.19 1563.56 1214.05 1565.31 1211.73 1567.21C1209.41 1569.11 1207.27 1570.86 1205.32 1572.46C1203.36 1574.06 1201.9 1575.26 1200.92 1576.06C1198.6 1577.96 1197.39 1579.97 1197.29 1582.09C1197.17 1584.44 1198.46 1587.76 1201.17 1592.07C1203.76 1596.48 1207.98 1602.51 1213.83 1610.17C1211.46 1610.27 1208.73 1610.67 1205.63 1611.37C1202.54 1612.07 1199.42 1612.99 1196.28 1614.13C1193.13 1615.28 1190.45 1616.36 1188.21 1617.37C1180.95 1606.99 1175.99 1598.3 1173.33 1591.31C1170.54 1584.41 1170.02 1578.41 1171.76 1573.31C1173.38 1568.31 1177.25 1563.31 1183.35 1558.31C1184.21 1557.61 1185.49 1556.56 1187.2 1555.16C1188.91 1553.76 1190.86 1552.16 1193.06 1550.36C1195.26 1548.56 1197.46 1546.77 1199.66 1544.97C1201.73 1543.27 1203.69 1541.67 1205.52 1540.17C1207.23 1538.77 1208.51 1537.72 1209.37 1537.02C1216.21 1531.42 1222.17 1527.86 1227.25 1526.35C1232.34 1524.84 1237.32 1525.45 1242.21 1528.19C1246.97 1531.02 1252.25 1535.98 1258.05 1543.07L1314.7 1612.35ZM1253.07 1651.79L1224.2 1649.41C1226.7 1641.25 1229.74 1632.74 1233.31 1623.9C1236.99 1615.18 1241.05 1606.55 1245.49 1598.02C1249.93 1589.49 1254.4 1581.24 1258.9 1573.28C1261.43 1574.88 1264.62 1576.54 1268.49 1578.28C1272.33 1580.23 1275.77 1581.7 1278.81 1582.67C1274.81 1590.24 1271.06 1598 1267.57 1605.95C1264.06 1614.13 1261.02 1622.13 1258.45 1629.95C1255.97 1637.89 1254.18 1645.17 1253.07 1651.79ZM1386.95 1660.31L1297.73 1733.34L1250.22 1675.24L1339.44 1602.2L1355.92 1622.37L1287.96 1678L1302.5 1695.78L1370.46 1640.15L1386.95 1660.31ZM1444.57 1598.76L1445.82 1624.97C1440.72 1626.7 1435.18 1628.28 1429.2 1629.7C1423.11 1631.22 1417.16 1632.42 1411.35 1633.3C1405.52 1634.4 1400.53 1634.91 1396.39 1634.83L1394.56 1606.04C1398.56 1606.44 1403.45 1606.31 1409.23 1605.65C1415.02 1605 1421 1604.08 1427.17 1602.91C1433.34 1601.73 1439.14 1600.34 1444.57 1598.76ZM1412.58 1540.19L1414.68 1566.31C1409.67 1568.17 1404.18 1569.81 1398.21 1571.23C1392.11 1572.75 1386.21 1574.01 1380.51 1575.01C1374.78 1576.23 1369.84 1576.8 1365.7 1576.73L1362.99 1548.35C1367 1548.53 1371.86 1548.23 1377.54 1547.45C1383.33 1546.79 1389.32 1545.77 1395.51 1544.37C1401.68 1543.19 1407.37 1541.8 1412.58 1540.19ZM1337.19 1458.09C1338.15 1465.25 1339.53 1473.41 1341.3 1482.56C1343.06 1491.94 1345.11 1501.68 1347.46 1511.79C1349.82 1521.9 1352.35 1531.86 1355.07 1541.67L1326.76 1542.2C1324.15 1533.52 1321.64 1524.47 1319.22 1515.02C1316.78 1505.8 1314.55 1496.6 1312.56 1487.43C1310.44 1478.35 1308.47 1469.46 1306.64 1460.75L1337.19 1458.09Z" fill="url(#paint17_linear_189151_956)"/>
<path d="M1157.14 1695.83L983.701 1757.77L974.311 1731.45L1147.75 1669.51L1157.14 1695.83ZM1134.61 1586.19L931.524 1658.72L922.134 1632.4L1125.22 1559.87L1134.61 1586.19ZM1109.94 1790.39L1081.19 1800.66L1012.91 1609.29L1041.67 1599.01L1109.94 1790.39Z" fill="url(#paint18_linear_189151_956)"/>
<defs>
<linearGradient id="paint0_linear_189151_956" x1="373.5" y1="2487.5" x2="2100" y2="-3259" gradientUnits="userSpaceOnUse">
<stop offset="0.25" stop-color="#DEE9F3"/>
<stop offset="0.982077" stop-color="#5F83AD"/>
</linearGradient>
<linearGradient id="paint1_linear_189151_956" x1="373.5" y1="2487.5" x2="2100" y2="-3259" gradientUnits="userSpaceOnUse">
<stop offset="0.25" stop-color="#DEE9F3"/>
<stop offset="0.982077" stop-color="#5F83AD"/>
</linearGradient>
<linearGradient id="paint2_linear_189151_956" x1="373.5" y1="2487.5" x2="2100" y2="-3259" gradientUnits="userSpaceOnUse">
<stop offset="0.25" stop-color="#DEE9F3"/>
<stop offset="0.982077" stop-color="#5F83AD"/>
</linearGradient>
<linearGradient id="paint3_linear_189151_956" x1="373.5" y1="2487.5" x2="2100" y2="-3259" gradientUnits="userSpaceOnUse">
<stop offset="0.25" stop-color="#DEE9F3"/>
<stop offset="0.982077" stop-color="#5F83AD"/>
</linearGradient>
<linearGradient id="paint4_linear_189151_956" x1="373.5" y1="2487.5" x2="2100" y2="-3259" gradientUnits="userSpaceOnUse">
<stop offset="0.25" stop-color="#DEE9F3"/>
<stop offset="0.982077" stop-color="#5F83AD"/>
</linearGradient>
<linearGradient id="paint5_linear_189151_956" x1="373.5" y1="2487.5" x2="2100" y2="-3259" gradientUnits="userSpaceOnUse">
<stop offset="0.25" stop-color="#DEE9F3"/>
<stop offset="0.982077" stop-color="#5F83AD"/>
</linearGradient>
<linearGradient id="paint6_linear_189151_956" x1="373.5" y1="2487.5" x2="2100" y2="-3259" gradientUnits="userSpaceOnUse">
<stop offset="0.25" stop-color="#DEE9F3"/>
<stop offset="0.982077" stop-color="#5F83AD"/>
</linearGradient>
<linearGradient id="paint7_linear_189151_956" x1="373.5" y1="2487.5" x2="2100" y2="-3259" gradientUnits="userSpaceOnUse">
<stop offset="0.25" stop-color="#DEE9F3"/>
<stop offset="0.982077" stop-color="#5F83AD"/>
</linearGradient>
<linearGradient id="paint8_linear_189151_956" x1="373.5" y1="2487.5" x2="2100" y2="-3259" gradientUnits="userSpaceOnUse">
<stop offset="0.25" stop-color="#DEE9F3"/>
<stop offset="0.982077" stop-color="#5F83AD"/>
</linearGradient>
<linearGradient id="paint9_linear_189151_956" x1="373.5" y1="2487.5" x2="2100" y2="-3259" gradientUnits="userSpaceOnUse">
<stop offset="0.25" stop-color="#DEE9F3"/>
<stop offset="0.982077" stop-color="#5F83AD"/>
</linearGradient>
<linearGradient id="paint10_linear_189151_956" x1="373.5" y1="2487.5" x2="2100" y2="-3259" gradientUnits="userSpaceOnUse">
<stop offset="0.25" stop-color="#DEE9F3"/>
<stop offset="0.982077" stop-color="#5F83AD"/>
</linearGradient>
<linearGradient id="paint11_linear_189151_956" x1="373.5" y1="2487.5" x2="2100" y2="-3259" gradientUnits="userSpaceOnUse">
<stop offset="0.25" stop-color="#DEE9F3"/>
<stop offset="0.982077" stop-color="#5F83AD"/>
</linearGradient>
<linearGradient id="paint12_linear_189151_956" x1="373.5" y1="2487.5" x2="2100" y2="-3259" gradientUnits="userSpaceOnUse">
<stop offset="0.25" stop-color="#DEE9F3"/>
<stop offset="0.982077" stop-color="#5F83AD"/>
</linearGradient>
<linearGradient id="paint13_linear_189151_956" x1="373.5" y1="2487.5" x2="2100" y2="-3259" gradientUnits="userSpaceOnUse">
<stop offset="0.25" stop-color="#DEE9F3"/>
<stop offset="0.982077" stop-color="#5F83AD"/>
</linearGradient>
<linearGradient id="paint14_linear_189151_956" x1="373.5" y1="2487.5" x2="2100" y2="-3259" gradientUnits="userSpaceOnUse">
<stop offset="0.25" stop-color="#DEE9F3"/>
<stop offset="0.982077" stop-color="#5F83AD"/>
</linearGradient>
<linearGradient id="paint15_linear_189151_956" x1="373.5" y1="2487.5" x2="2100" y2="-3259" gradientUnits="userSpaceOnUse">
<stop offset="0.25" stop-color="#DEE9F3"/>
<stop offset="0.982077" stop-color="#5F83AD"/>
</linearGradient>
<linearGradient id="paint16_linear_189151_956" x1="373.5" y1="2487.5" x2="2100" y2="-3259" gradientUnits="userSpaceOnUse">
<stop offset="0.25" stop-color="#DEE9F3"/>
<stop offset="0.982077" stop-color="#5F83AD"/>
</linearGradient>
<linearGradient id="paint17_linear_189151_956" x1="373.5" y1="2487.5" x2="2100" y2="-3259" gradientUnits="userSpaceOnUse">
<stop offset="0.25" stop-color="#DEE9F3"/>
<stop offset="0.982077" stop-color="#5F83AD"/>
</linearGradient>
<linearGradient id="paint18_linear_189151_956" x1="373.5" y1="2487.5" x2="2100" y2="-3259" gradientUnits="userSpaceOnUse">
<stop offset="0.25" stop-color="#DEE9F3"/>
<stop offset="0.982077" stop-color="#5F83AD"/>
</linearGradient>
</defs>
</svg>
